# xmcd
#
# Track frame offsets: 
#        150
#        16186
#        33208
#        48849
#        66836
#        80448
#        96870
#        112806
#        124999
#        140550
#        159605
#        174543
#        183599
#        195744
#        211786
#        221224
#        238457
#        257419
#        286083
#        302621
#        316510
#
# Disc length: 4454 seconds
#
# Revision: 0
# Processed by: cddbd v1.4b41PL3 Copyright (c) Steve Scherf et al.
# Submitted via: ExactAudioCopy v0.90a11
#
DISCID=22116415
DTITLE=Tom Jones - Millenium Hits
DYEAR=1900
DGENRE=
TTITLE0=Sex Bomb (feat.Mousse T)
TTITLE1=Little big Green (with Barenaked Ladies)
TTITLE2=Lust for Life (with The Pretenders)
TTITLE3=All Mine (with Divine Comedy)
TTITLE4=Mama Told Me Not to Come (with Stereophonics)
TTITLE5=Burning Down the House (with The Gardigans)
TTITLE6=Kiss
TTITLE7=Ain't That a Lot of Love (with Simply Red)
TTITLE8=Are You Gonna Go My Way (with Robbie Williams)
TTITLE9=Come Together (live)
TTITLE10=Looking Out My Window (with JTQ)
TTITLE11=It's Not Unusual
TTITLE12=She's a Lady
TTITLE13=She Drives Me Crazy (with Zucchero)
TTITLE14=What's New Pussycat
TTITLE15=You Need Love Like I Do
TTITLE16=Sometimes We Cry (with Van Morrison)
TTITLE17=Sex Bomb (Disco Mix)
TTITLE18=Cold Outside (with Cerys)
TTITLE19=Green, Green Grass of Home
TTITLE20=Sex Bomb (Disco Radio Mix)
EXTD=
EXTT0=
EXTT1=
EXTT2=
EXTT3=
EXTT4=
EXTT5=
EXTT6=
EXTT7=
EXTT8=
EXTT9=
EXTT10=
EXTT11=
EXTT12=
EXTT13=
EXTT14=
EXTT15=
EXTT16=
EXTT17=
EXTT18=
EXTT19=
EXTT20=
PLAYORDER=
